HIERARCHY
ROOT hip
{
  OFFSET 0 0 0
  CHANNELS 6 Xposition Yposition Zposition Zrotation Yrotation Xrotation
  JOINT abdomen
  {
    OFFSET 0 20.6881 -0.73152
    CHANNELS 3 Zrotation Xrotation Yrotation
    JOINT chest
    {
      OFFSET 0 11.7043 -0.48768
      CHANNELS 3 Zrotation Xrotation Yrotation
      JOINT neck
      {
        OFFSET 0 22.1894 -2.19456
        CHANNELS 3 Zrotation Xrotation Yrotation
        JOINT head
        {
          OFFSET -0.24384 7.07133 1.2192
          CHANNELS 3 Zrotation Xrotation Yrotation
          JOINT leftEye
          {
            OFFSET 4.14528 8.04674 8.04672
            CHANNELS 3 Zrotation Xrotation Yrotation
            End Site
            {
              OFFSET 1 0 0
            }
          }
          JOINT rightEye
          {
            OFFSET -3.6576 8.04674 8.04672
            CHANNELS 3 Zrotation Xrotation Yrotation
            End Site
            {
              OFFSET 1 0 0
            }
          }
        }
      }
      JOINT rCollar
      {
        OFFSET -2.68224 19.2634 -4.8768
        CHANNELS 3 Zrotation Xrotation Yrotation
        JOINT rShldr
        {
          OFFSET -8.77824 -1.95073 1.46304
          CHANNELS 3 Zrotation Xrotation Yrotation
          JOINT rForeArm
          {
            OFFSET -28.1742 -1.7115 0.48768
            CHANNELS 3 Zrotation Xrotation Yrotation
            JOINT rHand
            {
              OFFSET -22.5879 0.773209 7.07136
              CHANNELS 3 Zrotation Xrotation Yrotation
              JOINT rThumb1
              {
                OFFSET -1.2192 -0.487915 3.41376
                CHANNELS 3 Zrotation Xrotation Yrotation
                JOINT rThumb2
                {
                  OFFSET -3.37035 -0.52449 3.41376
                  CHANNELS 3 Zrotation Xrotation Yrotation
                  End Site
                  {
                    OFFSET -1.78271 -1.18214 1.43049
                  }
                }
              }
              JOINT rIndex1
              {
                OFFSET -7.75947 0.938293 5.60832
                CHANNELS 3 Zrotation Xrotation Yrotation
                JOINT rIndex2
                {
                  OFFSET -2.54057 -0.884171 1.56538
                  CHANNELS 3 Zrotation Xrotation Yrotation
                  End Site
                  {
                    OFFSET -1.62519 -0.234802 1.16502
                  }
                }
              }
              JOINT rMid1
              {
                OFFSET -8.24714 1.18213 3.41376
                CHANNELS 3 Zrotation Xrotation Yrotation
                JOINT rMid2
                {
                  OFFSET -3.10165 -0.590103 1.0647
                  CHANNELS 3 Zrotation Xrotation Yrotation
                  End Site
                  {
                    OFFSET -2.48547 -0.328903 0.83742
                  }
                }
              }
              JOINT rRing1
              {
                OFFSET -8.82822 0.546677 1.51678
                CHANNELS 3 Zrotation Xrotation Yrotation
                JOINT rRing2
                {
                  OFFSET -2.60934 -0.819778 -0.0198488
                  CHANNELS 3 Zrotation Xrotation Yrotation
                  End Site
                  {
                    OFFSET -2.33842 -0.294052 0.168128
                  }
                }
              }
              JOINT rPinky1
              {
                OFFSET -8.27202 -0.0477905 -0.4584
                CHANNELS 3 Zrotation Xrotation Yrotation
                JOINT rPinky2
                {
                  OFFSET -1.82734 -0.647385 -0.700984
                  CHANNELS 3 Zrotation Xrotation Yrotation
                  End Site
                  {
                    OFFSET -1.69225 -0.51767 -0.607171
                  }
                }
              }
            }
          }
        }
      }
      JOINT lCollar
      {
        OFFSET 2.68224 19.2634 -4.8768
        CHANNELS 3 Zrotation Xrotation Yrotation
        JOINT lShldr
        {
          OFFSET 8.77824 -1.95073 1.46304
          CHANNELS 3 Zrotation Xrotation Yrotation
          JOINT lForeArm
          {
            OFFSET 28.1742 -1.7115 0.48768
            CHANNELS 3 Zrotation Xrotation Yrotation
            JOINT lHand
            {
              OFFSET 22.5879 0.773209 7.07136
              CHANNELS 3 Zrotation Xrotation Yrotation
              JOINT lThumb1
              {
                OFFSET 1.2192 -0.487915 3.41376
                CHANNELS 3 Zrotation Xrotation Yrotation
                JOINT lThumb2
                {
                  OFFSET 3.37035 -0.52449 3.41376
                  CHANNELS 3 Zrotation Xrotation Yrotation
                  End Site
                  {
                    OFFSET 1.78271 -1.18214 1.43049
                  }
                }
              }
              JOINT lIndex1
              {
                OFFSET 7.75947 0.938293 5.60832
                CHANNELS 3 Zrotation Xrotation Yrotation
                JOINT lIndex2
                {
                  OFFSET 2.54057 -0.884171 1.56538
                  CHANNELS 3 Zrotation Xrotation Yrotation
                  End Site
                  {
                    OFFSET 1.62519 -0.234802 1.16502
                  }
                }
              }
              JOINT lMid1
              {
                OFFSET 8.24714 1.18213 3.41376
                CHANNELS 3 Zrotation Xrotation Yrotation
                JOINT lMid2
                {
                  OFFSET 3.10165 -0.590103 1.0647
                  CHANNELS 3 Zrotation Xrotation Yrotation
                  End Site
                  {
                    OFFSET 2.48547 -0.328903 0.83742
                  }
                }
              }
              JOINT lRing1
              {
                OFFSET 8.82822 0.546677 1.51678
                CHANNELS 3 Zrotation Xrotation Yrotation
                JOINT lRing2
                {
                  OFFSET 2.60934 -0.819778 -0.0198488
                  CHANNELS 3 Zrotation Xrotation Yrotation
                  End Site
                  {
                    OFFSET 2.33842 -0.294052 0.168128
                  }
                }
              }
              JOINT lPinky1
              {
                OFFSET 8.27202 -0.0477905 -0.4584
                CHANNELS 3 Zrotation Xrotation Yrotation
                JOINT lPinky2
                {
                  OFFSET 1.82734 -0.647385 -0.700984
                  CHANNELS 3 Zrotation Xrotation Yrotation
                  End Site
                  {
                    OFFSET 1.69225 -0.51767 -0.607171
                  }
                }
              }
            }
          }
        }
      }
    }
  }
  JOINT rButtock
  {
    OFFSET -8.77824 4.35084 1.2192
    CHANNELS 3 Zrotation Xrotation Yrotation
    JOINT rThigh
    {
      OFFSET 0 -1.70687 -2.19456
      CHANNELS 3 Zrotation Xrotation Yrotation
      JOINT rShin
      {
        OFFSET 0 -36.8199 0.73152
        CHANNELS 3 Zrotation Xrotation Yrotation
        JOINT rFoot
        {
          OFFSET 0.73152 -45.1104 -5.12064
          CHANNELS 3 Zrotation Xrotation Yrotation
          End Site
          {
            OFFSET -1.1221 -3.69964 12.103
          }
        }
      }
    }
  }
  JOINT lButtock
  {
    OFFSET 8.77824 4.35084 1.2192
    CHANNELS 3 Zrotation Xrotation Yrotation
    JOINT lThigh
    {
      OFFSET 0 -1.70687 -2.19456
      CHANNELS 3 Zrotation Xrotation Yrotation
      JOINT lShin
      {
        OFFSET 0 -36.8199 0.73152
        CHANNELS 3 Zrotation Xrotation Yrotation
        JOINT lFoot
        {
          OFFSET -0.73152 -45.1104 -5.12064
          CHANNELS 3 Zrotation Xrotation Yrotation
          End Site
          {
            OFFSET 1.1221 -3.69964 12.103
          }
        }
      }
    }
  }
}
MOTION
Frames:	4
Frame Time:	0.03333
-0.0001500000053056283 51.84289813041687 0.01500000071246177 -14.093299635283005 -25.360799746769995 11.347999867271113 10.69789990074836 4.132590162503759 1.991009961455649 3.17401003820267 -5.790049970275951 0.5746770156435048 -5.096279908634253 9.812049978607096 -3.9716901155652997 7.412590009029629 -14.899600051708425 -6.3344898985463685 -0.0 0.0 0.0 -0.0 0.0 0.0 2.299479982180586e-13 3.0439399671926923e-13 9.509029581042112e-13 103.34300244434068 51.04489966771337 -52.3135014381111 -27.296400225470737 -43.167000460155684 89.81120241544068 -3.909529844589483 -47.592700080040906 -8.851410338827836 -3.3847999638737244e-09 7.899410079054315e-09 -8.349390383340419e-10 -5.8098500595650846e-09 1.3348700532848639e-08 -1.5505099710184158e-09 -3.3847800854069652e-09 7.899390200587557e-09 -8.349489775674215e-10 7.730910121524428 5.474879855648998 0.41731399283890674 -3.3847900246403446e-09 7.89937986378484e-09 -8.349479836440835e-10 2.90554006136521 0.9651829962377875 0.10290200252939893 -3.3847800854069652e-09 7.899390200587557e-09 -8.349459957974076e-10 10.278599710243157 0.7318009818271524 0.025912300303053633 -3.3847999638737244e-09 7.899410079054315e-09 -8.349319814783424e-10 2.221669932038622 -0.7334870246959406 -0.20891999872313852 2.2989199296747253e-13 3.0438999287769783e-13 9.507109678344377e-13 -40.67730088503766 28.73300074378869 -38.52590057951036 16.4427002946598 -9.10578024389745 -30.613498671360357 1.0756600254022743 28.078699357152733 -4.2997701414972225 -1.583750047386725e-09 -1.0352199779969394e-08 -5.6006299920637326e-09 -2.8540900255240433e-09 -1.747890046027151e-08 -9.63393988708651e-09 -1.583750047386725e-09 -1.0352199779969394e-08 -5.600620052830353e-09 -7.730910121524428 5.474879855648998 -0.41731399283890674 -1.5837299701352981e-09 -1.0352199779969394e-08 -5.6006299920637326e-09 -2.90554006136521 0.9651829962377875 -0.10290200252939893 -1.583750047386725e-09 -1.0352199779969394e-08 -5.600620052830353e-09 -10.278599710243157 0.7318009818271524 -0.025912300303053633 -1.5837400087610114e-09 -1.0352199779969394e-08 -5.600620052830353e-09 -2.221669932038622 -0.7334870246959406 0.20891999872313852 -2.0321699793705798e-16 0.0 -3.882510030490358e-19 -9.491769601820504 14.670800667344047 0.36400399284098695 0.10026999847088378 29.659300753742066 2.402100051135087 -11.349400056050966 -18.239600121885097 -36.34250083772156 2.0321699793705798e-16 0.0 3.882510030490358e-19 82.38850116511848 -52.504698923547274 77.12049920169271 6.899679941515283 81.54060148155311 -6.417919805484428 -0.109415001449616 -4.359229926429945 -4.090160173605994
0.0008700000307726441 51.843297481536865 0.02100000056088902 -14.101500131155252 -25.351700227248244 11.382599898059105 10.715700227499061 4.090979796306395 2.0102999097756458 3.15558005338786 -5.753890095036257 0.5781160158906062 -4.990910153421643 9.91298992925613 -3.6691601197711017 7.420180056744806 -15.300699495622839 -5.732559841145131 -0.0 0.0 0.0 -0.0 0.0 0.0 2.3255199971324605e-13 3.093100104634127e-13 1.1599999685782923e-12 103.32400085806971 51.055800649628715 -52.31799911767956 -27.285999554912102 -43.19909893416016 89.87330249537443 -3.89654992384552 -47.536398830712486 -8.83383028567787 -3.903359984555547e-09 9.220450285445506e-09 -9.089830470648491e-10 -6.701640220729947e-09 1.5587699709185105e-08 -1.695939939297331e-09 -3.903340106088788e-09 9.220429611840075e-09 -9.089969619915805e-10 7.730910121524428 5.474879855648998 0.41731399283890674 -3.903350045322167e-09 9.220420070176032e-09 -9.089959680682426e-10 2.90554006136521 0.9651829962377875 0.10290200252939893 -3.903340106088788e-09 9.220420070176032e-09 -9.089929862982287e-10 10.278599710243157 0.7318009818271524 0.025912300303053633 -3.903369923788927e-09 9.220439948642791e-09 -9.089789719791635e-10 2.221669932038622 -0.7334870246959406 -0.20891999872313852 2.3245500968439316e-13 3.0930700151580757e-13 1.1597800242146388e-12 -40.67440146973499 28.693098778657475 -38.56429990302417 16.448099559198695 -9.111019852764496 -30.624799219342144 1.0740500217488553 28.059800223719307 -4.296349924270339 -1.7705899430872909e-09 -1.159810017714968e-08 -6.268810063640297e-09 -3.1897999575685284e-09 -1.958510034671549e-08 -1.0783099737936731e-08 -1.7705899430872909e-09 -1.159810017714968e-08 -6.268800124406918e-09 -7.730910121524428 5.474879855648998 -0.41731399283890674 -1.7705800038539113e-09 -1.159810017714968e-08 -6.268820002873677e-09 -2.90554006136521 0.9651829962377875 -0.10290200252939893 -1.770600081105338e-09 -1.159810017714968e-08 -6.268800124406918e-09 -10.278599710243157 0.7318009818271524 -0.025912300303053633 -1.7705899430872909e-09 -1.159810017714968e-08 -6.268800124406918e-09 -2.221669932038622 -0.7334870246959406 0.20891999872313852 -2.0321699793705798e-16 0.0 -3.882510030490358e-19 -9.486339601430343 14.639899183991616 0.34340299504589133 0.10006299838230744 29.671000867790298 2.403170042957252 -11.384600289712273 -18.304799400154746 -36.329100006569995 2.0321699793705798e-16 0.0 3.882510030490358e-19 82.43039754548735 -52.53029847255648 77.15510094002799 6.920699848685998 81.5593025395006 -6.440969986385928 -0.11075599970339958 -4.380269897281346 -4.076180057035447
0.0007600000344609725 51.83990001678467 0.026000000434578396 -14.1220000901754 -25.33780079228727 11.461999993386858 10.752299796166573 3.982139878108596 2.040380062880382 3.141079988666746 -5.712100009486357 0.582822016228745 -4.839480163767406 10.042399815913068 -3.295350056355239 7.387099743047142 -15.745599235137252 -4.999540097437954 -0.0 0.0 0.0 -0.0 0.0 0.0 9.47188982529763e-14 9.892150022622267e-14 6.665510032715588e-13 103.31699991417045 51.05409993252538 -52.35629940345041 -27.27249968601757 -43.24000152200478 89.95260099163828 -3.872859839596154 -47.43330054028573 -8.801689976764727 -2.8062099553492914e-09 6.529679953752606e-09 -7.288080036992899e-10 -4.814029918309577e-09 1.1015499687956588e-08 -1.3533999648590704e-09 -2.806200016115912e-09 6.529660075285846e-09 -7.288199804755123e-10 7.730910121524428 5.474879855648998 0.41731399283890674 -2.8062099553492914e-09 6.529660075285846e-09 -7.288160047821605e-10 2.90554006136521 0.9651829962377875 0.10290200252939893 -2.806190076882532e-09 6.529660075285846e-09 -7.288160047821605e-10 10.278599710243157 0.7318009818271524 0.025912300303053633 -2.8062099553492914e-09 6.529670014519226e-09 -7.28807009775952e-10 2.221669932038622 -0.7334870246959406 -0.20891999872313852 9.455520179697386e-14 9.891810302731364e-14 6.663010179632669e-13 -40.68120092305374 28.6809990985428 -38.591801659717234 16.455199540840926 -9.117839796650754 -30.64009884308297 1.0729400092870225 28.046699920891225 -4.293979848628345 -1.3295499792261135e-09 -7.349530341285451e-09 -4.173750069968146e-09 -2.384739944443159e-09 -1.2387500331731528e-08 -7.176620281166357e-09 -1.3295499792261135e-09 -7.349539882949495e-09 -4.173750069968146e-09 -7.730910121524428 5.474879855648998 -0.41731399283890674 -1.329540039992734e-09 -7.349530341285451e-09 -4.173740130734766e-09 -2.90554006136521 0.9651829962377875 -0.10290200252939893 -1.3295600178518268e-09 -7.349520004482736e-09 -4.173740130734766e-09 -10.278599710243157 0.7318009818271524 -0.025912300303053633 -1.3295499792261135e-09 -7.349520004482736e-09 -4.173740130734766e-09 -2.221669932038622 -0.7334870246959406 0.20891999872313852 -2.0321699793705798e-16 0.0 -3.882510030490358e-19 -9.469159968120469 14.56580016923344 0.3039150034114031 0.10002900084890944 29.68079877415468 2.4057300832355373 -11.404500045859105 -18.34850065801178 -36.3149990810285 2.0321699793705798e-16 0.0 3.882510030490358e-19 82.56450147965137 -52.568598758327326 77.27469755239493 6.9497998696448375 81.58680088109907 -6.471870189077889 -0.11244100203555643 -4.403679943774742 -4.059630081789683
-0.002199999948970799 51.836901903152466 0.03600000018195715 -14.140999968899083 -25.344099934249314 11.529199663309674 10.774700255323276 3.9248900862591953 2.0903499402916066 3.1302500834074563 -5.694309928019413 0.5950870082656781 -4.621639817926312 10.205499610651096 -2.8400400413286686 7.318160082433264 -16.26939961239636 -4.114649816875074 -0.0 0.0 0.0 -0.0 0.0 0.0 -2.2369799545873683e-14 -3.5443300771775103e-14 3.6723499388727457e-13 103.30799772484437 51.031300761075876 -52.386301009379686 -27.258499505766338 -43.28219843069712 90.03469986546183 -3.8559901261198686 -47.359298855723225 -8.77876017794735 -1.7288900882279579e-09 4.159810096368626e-09 -3.784669983103201e-10 -2.9687800321989473e-09 7.0260202218603894e-09 -7.136950017763133e-10 -1.7288799502099106e-09 4.159789820332532e-09 -3.7847999385796384e-10 7.730910121524428 5.474879855648998 0.41731399283890674 -1.7288900882279579e-09 4.159800157135247e-09 -3.784719927750933e-10 2.90554006136521 0.9651829962377875 0.10290200252939893 -1.728870010976531e-09 4.159789820332532e-09 -3.7847400546985264e-10 10.278599710243157 0.7318009818271524 0.025912300303053633 -1.7288900882279579e-09 4.159800157135247e-09 -3.7846501046364413e-10 2.221669932038622 -0.7334870246959406 -0.20891999872313852 -2.256050069998964e-14 -3.544320067573582e-14 3.6701699078014056e-13 -40.67730088503766 28.691100948325246 -38.622298454361335 16.462200484740187 -9.122870230974469 -30.653800202558017 1.0723999974557685 28.04040077892918 -4.292829815526844 -6.175090149726619e-10 -4.189320077841916e-09 -2.2376299475460945e-09 -1.114429982790647e-09 -7.0776501660045865e-09 -3.850519839355053e-09 -6.175090149726619e-10 -4.1893399563086744e-09 -2.2376299475460945e-09 -7.730910121524428 5.474879855648998 -0.41731399283890674 -6.175080210493239e-10 -4.189299801805821e-09 -2.2376299475460945e-09 -2.90554006136521 0.9651829962377875 -0.10290200252939893 -6.175149785126897e-10 -4.189310138608536e-09 -2.2376299475460945e-09 -10.278599710243157 0.7318009818271524 -0.025912300303053633 -6.175090149726619e-10 -4.189310138608536e-09 -2.2376299475460945e-09 -2.221669932038622 -0.7334870246959406 0.20891999872313852 -2.0321699793705798e-16 0.0 -3.882510030490358e-19 -9.4729797514138 14.498500607794012 0.2599810121944861 0.10019700082412927 29.709700719627588 2.4079200126381726 -11.414700079610874 -18.378000245037065 -36.299798495030636 2.0321699793705798e-16 0.0 3.882510030490358e-19 82.63970186241322 -52.57559970222659 77.33780167013667 6.96758013271485 81.60600054285598 -6.490910195162946 -0.11468099725841649 -4.431320011798491 -4.048560052692385
